PathFileType	4	(X/Y/Z)	S1_nor_slow_right.trc
DataRate	CameraRate	NumFrames	NumMarkers	Units	OrigDataRate	OrigDataStartFrame	OrigNumFrames
250.00	250.00	20	18	mm	250.00	1237	9891
Frame#	Time	c7	r_should	l_should	clavicle	r_upa	r_elb_l	r_elb_m	r_low	r_wri_l	r_wri_m	r_met	l_upa	l_elb_l	l_elb_m	l_low	l_wri_l	l_wri_m	l_met
	X1	Y1	Z1	X2	Y2	Z2	X3	Y3	Z3	X4	Y4	Z4	X5	Y5	Z5	X6	Y6	Z6	X7	Y7	Z7	X8	Y8	Z8	X9	Y9	Z9	X10	Y10	Z10	X11	Y11	Z11	X12	Y12	Z12	X13	Y13	Z13	X14	Y14	Z14	X15	Y15	Z15	X16	Y16	Z16	X17	Y17	Z17	X18	Y18	Z18
1237	4.94400	881.27100	1426.64978	75.75109	951.42090	1342.39893	251.12187	917.76526	1364.56946	-119.59723	1008.19775	1297.09656	55.95557	945.04822	1131.89844	295.71075	964.91815	1038.30627	306.90988	916.55267	1012.34698	219.68472	977.05005	903.31989	282.40778	1073.61719	850.48285	302.49243	1052.49829	835.94080	230.02225	1085.18323	770.62866	319.48331	904.99274	1144.85718	-164.40105	907.43237	1058.61401	-177.57979	836.63318	1037.46875	-102.56018	852.02844	919.99213	-191.46080	919.27515	825.05383	-170.93068	848.85095	819.93677	-187.45714	931.60980	748.68738	-192.02003
1238	4.94800	881.24884	1426.68164	75.63613	951.25250	1342.44751	251.07771	917.78192	1364.54004	-119.65161	1008.15021	1297.09521	55.92990	944.67908	1131.96423	295.73883	964.49384	1038.50293	306.94241	916.18549	1012.44641	219.76927	977.13507	903.64996	282.38928	1073.96887	851.24335	302.41138	1052.92773	836.67706	229.95285	1085.98193	771.45532	319.30835	905.00604	1144.82507	-164.43285	907.43732	1058.57629	-177.60831	836.60199	1037.46204	-102.62036	852.02661	919.96344	-191.48865	919.25140	825.01526	-170.91605	848.83313	819.91327	-187.47479	931.58813	748.62183	-191.97534
1239	4.95200	881.22620	1426.71814	75.51476	951.08716	1342.50305	251.02634	917.79962	1364.50977	-119.71074	1008.10303	1297.08887	55.91462	944.28125	1132.04675	295.75998	964.07483	1038.71277	306.96567	915.84283	1012.51361	219.84050	977.22473	903.99158	282.36493	1074.35449	851.99280	302.32483	1053.36572	837.42725	229.87401	1086.78699	772.25696	319.14044	905.02185	1144.79053	-164.46629	907.44312	1058.54333	-177.63550	836.57751	1037.44556	-102.66891	852.02557	919.93225	-191.51537	919.22711	824.97833	-170.90294	848.82355	819.88501	-187.49243	931.56268	748.56317	-191.94183
1240	4.95600	881.20435	1426.75598	75.39939	950.91907	1342.56238	250.97379	917.82294	1364.48389	-119.78284	1008.05450	1297.08179	55.90155	943.88556	1132.13086	295.78894	963.67261	1038.92712	306.98108	915.52490	1012.59186	219.90669	977.32324	904.34839	282.33990	1074.75879	852.76123	302.24063	1053.79919	838.18286	229.80453	1087.58521	773.10669	318.97925	905.04138	1144.75537	-164.50060	907.44971	1058.51624	-177.65781	836.55597	1037.43030	-102.72051	852.02875	919.90314	-191.53918	919.20544	824.94659	-170.89783	848.80896	819.85834	-187.50375	931.53442	748.51239	-191.91336
1241	4.96000	881.17786	1426.77844	75.29434	950.74896	1342.62280	250.91946	917.84094	1364.45996	-119.85159	1008.00861	1297.07727	55.88306	943.50781	1132.24402	295.83670	963.27795	1039.14954	307.02014	915.19989	1012.68542	219.97861	977.43347	904.70874	282.31396	1075.15442	853.53156	302.16373	1054.22546	838.95343	229.74046	1088.39600	773.96381	318.81937	905.05695	1144.72485	-164.53993	907.45905	1058.47742	-177.68169	836.53381	1037.41711	-102.76864	852.02802	919.87518	-191.56017	919.18396	824.91614	-170.88977	848.79053	819.83209	-187.51669	931.51770	748.45276	-191.88606
1242	4.96400	881.14594	1426.79614	75.17762	950.58606	1342.68677	250.86731	917.85974	1364.43347	-119.91584	1007.96545	1297.07288	55.87064	943.14240	1132.34521	295.87875	962.87665	1039.37939	307.06284	914.86383	1012.80273	220.05460	977.55090	905.06531	282.29279	1075.56213	854.33911	302.09738	1054.67566	839.74243	229.67979	1089.21692	774.83185	318.67310	905.07141	1144.69263	-164.57524	907.46521	1058.43762	-177.70151	836.51367	1037.39209	-102.81266	852.02094	919.84448	-191.58609	919.16229	824.88123	-170.87917	848.77563	819.80408	-187.53123	931.49414	748.40106	-191.86497
1243	4.96800	881.11304	1426.81958	75.05392	950.42188	1342.75842	250.82204	917.87354	1364.40698	-119.98261	1007.91992	1297.07483	55.85191	942.76703	1132.45447	295.91711	962.48590	1039.59229	307.10114	914.51910	1012.92493	220.14685	977.68311	905.41260	282.28275	1075.99316	855.16815	302.03131	1055.14453	840.54163	229.61600	1090.04834	775.72034	318.52994	905.08771	1144.65784	-164.60480	907.47864	1058.39624	-177.71600	836.49756	1037.35522	-102.85672	852.01849	919.80957	-191.60849	919.13977	824.85284	-170.87103	848.76276	819.77386	-187.55237	931.46912	748.34766	-191.83781
1244	4.97200	881.08264	1426.84131	74.94598	950.25458	1342.82947	250.77933	917.88654	1364.37610	-120.04071	1007.86981	1297.08044	55.83077	942.41101	1132.54004	295.95355	962.11115	1039.79968	307.13571	914.19659	1013.04364	220.23404	977.82513	905.77325	282.28183	1076.41113	855.99017	301.96909	1055.59607	841.34198	229.56668	1090.85986	776.62384	318.40912	905.09808	1144.62708	-164.63387	907.48627	1058.36755	-177.73279	836.47858	1037.32532	-102.89006	852.01654	919.77350	-191.62914	919.11401	824.82385	-170.86171	848.75208	819.74414	-187.56633	931.44940	748.29578	-191.81462
1245	4.97600	881.04889	1426.86658	74.84091	950.09875	1342.89673	250.72964	917.89587	1364.34680	-120.10086	1007.82037	1297.08875	55.81989	942.07227	1132.62048	296.00043	961.74164	1040.02405	307.17084	913.85486	1013.16632	220.30980	977.97131	906.16089	282.27731	1076.83044	856.82654	301.91711	1056.05786	842.17065	229.54042	1091.68079	777.55798	318.31125	905.11359	1144.59509	-164.66043	907.49622	1058.33984	-177.75858	836.46515	1037.30042	-102.92007	852.01843	919.74084	-191.64563	919.08844	824.79755	-170.85257	848.74213	819.71436	-187.57661	931.42670	748.24603	-191.78940
1246	4.98000	881.01385	1426.89246	74.72647	949.94385	1342.97900	250.68039	917.90149	1364.31909	-120.15924	1007.77222	1297.09082	55.81052	941.62299	1132.83105	295.98248	961.36810	1040.25818	307.19540	913.51294	1013.30743	220.38629	978.11755	906.54785	282.28085	1077.26306	857.68951	301.86795	1056.53711	843.00519	229.49200	1092.52271	778.50519	318.18488	905.12897	1144.56409	-164.68538	907.50165	1058.30835	-177.77921	836.44666	1037.27100	-102.95311	852.01892	919.70599	-191.66139	919.06940	824.76996	-170.84695	848.73151	819.67871	-187.58952	931.40656	748.19727	-191.75922
1247	4.98400	880.97510	1426.92236	74.61354	949.78949	1343.05249	250.62949	917.90259	1364.29175	-120.22308	1007.72430	1297.09753	55.78408	941.01630	1133.20544	295.87289	961.00067	1040.49756	307.21402	913.20404	1013.47125	220.46191	978.26886	906.93103	282.28702	1077.36609	858.70428	302.04211	1057.01526	843.81171	229.46951	1093.39148	779.43256	318.04926	905.13031	1144.52319	-164.71396	907.51160	1058.26343	-177.79164	836.42322	1037.24084	-102.98825	852.01874	919.67175	-191.68066	919.04883	824.74554	-170.84183	848.72046	819.64563	-187.60341	931.39410	748.14819	-191.73833
1248	4.98800	880.93988	1426.95435	74.50325	949.64862	1343.12402	250.56967	917.90845	1364.26587	-120.28194	1007.67627	1297.09924	55.75397	940.75067	1133.23438	295.94119	960.64398	1040.73938	307.23801	912.89307	1013.64612	220.55315	978.43018	907.32825	282.28873	1077.01086	859.87891	302.47366	1057.49988	844.65424	229.44266	1094.26636	780.38574	317.91916	905.13007	1144.47974	-164.74101	907.53070	1058.22705	-177.80046	836.40503	1037.22144	-103.02124	852.02319	919.63873	-191.70213	919.02728	824.71387	-170.83582	848.71722	819.61108	-187.62604	931.37982	748.09753	-191.72028
1249	4.99200	880.89960	1426.98999	74.38683	949.51190	1343.19116	250.51868	917.91205	1364.23938	-120.33372	1007.63049	1297.10681	55.72549	940.70508	1133.05688	296.13113	960.28009	1040.98279	307.26981	912.58051	1013.79370	220.63936	978.60181	907.74402	282.29587	1077.14893	860.77020	302.53156	1057.99890	845.50842	229.38916	1095.15271	781.35791	317.80115	905.15497	1144.44421	-164.76787	907.54865	1058.19458	-177.81140	836.38208	1037.19763	-103.06093	852.02771	919.60681	-191.72336	919.00812	824.68103	-170.82858	848.71216	819.58600	-187.65047	931.36987	748.04987	-191.71492
1250	4.99600	880.85870	1427.02393	74.28321	949.38348	1343.24695	250.46632	917.91534	1364.21130	-120.38937	1007.58740	1297.11670	55.71186	940.45648	1133.09033	296.20361	959.91431	1041.22668	307.31302	912.27148	1013.91742	220.72566	978.78510	908.16370	282.30768	1077.42090	861.58972	302.48557	1058.48120	846.35669	229.35866	1096.04358	782.34796	317.69348	905.17242	1144.40735	-164.79326	907.57092	1058.15479	-177.82065	836.36096	1037.17993	-103.10479	852.03192	919.57947	-191.75270	918.98798	824.64160	-170.82169	848.70227	819.56384	-187.66916	931.36975	747.99982	-191.70830
1251	5.00000	880.81573	1427.05188	74.18769	949.25061	1343.31165	250.41920	917.91827	1364.17773	-120.44717	1007.54095	1297.12268	55.70291	940.15503	1133.16614	296.23901	959.54871	1041.46716	307.36157	911.96930	1014.03198	220.81969	978.96301	908.59070	282.32367	1077.71936	862.38049	302.41232	1058.97375	847.22308	229.34294	1096.96228	783.35083	317.56110	905.18231	1144.36816	-164.82022	907.58203	1058.11719	-177.83640	836.33966	1037.16711	-103.15195	852.03345	919.55280	-191.78154	918.96722	824.60461	-170.82074	848.69147	819.53888	-187.69905	931.36279	747.94623	-191.68521
1252	5.00400	880.76837	1427.07776	74.08303	949.10895	1343.37354	250.37659	917.91833	1364.14001	-120.50159	1007.49121	1297.12756	55.68986	939.84235	1133.26465	296.27383	959.18402	1041.70276	307.40988	911.67499	1014.15277	220.93326	979.14172	909.03119	282.34238	1078.02844	863.19482	302.33749	1059.47620	848.09338	229.32550	1097.88501	784.36292	317.44214	905.19037	1144.32373	-164.85324	907.59113	1058.07251	-177.85104	836.31860	1037.14160	-103.19689	852.03571	919.52173	-191.81096	918.94592	824.56848	-170.82127	848.67841	819.51227	-187.73886	931.34473	747.89117	-191.65796
1253	5.00800	880.71765	1427.10535	73.97711	948.95508	1343.43262	250.32782	917.91016	1364.10828	-120.54620	1007.42743	1297.12744	55.67165	939.51343	1133.37598	296.31210	958.83307	1041.94336	307.45712	911.40369	1014.25293	221.04243	979.32306	909.47534	282.36539	1078.33496	864.01697	302.26230	1059.94714	848.96002	229.30405	1098.82068	785.36230	317.30304	905.19342	1144.28625	-164.88885	907.60040	1058.03101	-177.87370	836.29413	1037.11633	-103.23268	852.03693	919.49176	-191.84575	918.92102	824.52954	-170.81992	848.66876	819.47668	-187.76640	931.32227	747.82684	-191.63597
1254	5.01200	880.66711	1427.12805	73.87966	948.79279	1343.49365	250.27913	917.89581	1364.07727	-120.59495	1007.35889	1297.12842	55.64972	939.18292	1133.50110	296.37503	958.48761	1042.19409	307.48849	911.13507	1014.34814	221.15514	979.50616	909.91724	282.39404	1079.25537	864.85718	302.02963	1060.44495	849.85437	229.28874	1099.70874	786.42859	317.21008	905.19397	1144.25586	-164.91875	907.60376	1057.99402	-177.89917	836.26465	1037.09241	-103.27029	852.03223	919.46545	-191.88226	918.89569	824.49426	-170.82195	848.65765	819.44153	-187.79144	931.29926	747.76410	-191.61728
1255	5.01600	880.61475	1427.14661	73.78909	948.62830	1343.56372	250.22995	917.87646	1364.05164	-120.65266	1007.28760	1297.13049	55.64262	938.84198	1133.62817	296.46112	958.14276	1042.45325	307.53159	910.83197	1014.43646	221.27081	979.69952	910.36078	282.43332	1080.98767	865.80505	301.60880	1060.95508	850.76105	229.26569	1100.62231	787.51196	317.12305	905.19861	1144.24109	-164.94551	907.60413	1057.95911	-177.91927	836.23615	1037.07581	-103.31557	852.02899	919.43475	-191.91078	918.87115	824.46179	-170.82431	848.64667	819.41022	-187.82706	931.27802	747.71680	-191.59340
1256	5.02000	880.56293	1427.17200	73.70450	948.45630	1343.63892	250.19756	917.85944	1364.02698	-120.70892	1007.20880	1297.12231	55.62770	938.49054	1133.76465	296.54169	957.81250	1042.71704	307.59354	910.96198	1014.47986	221.47604	979.92310	910.81189	282.47195	1081.77258	866.76611	301.49930	1061.47949	851.65710	229.25352	1101.52283	788.61389	317.05667	905.19666	1144.21411	-164.98151	907.59888	1057.92883	-177.94151	836.21088	1037.05261	-103.36238	852.02466	919.40582	-191.94254	918.84540	824.42950	-170.82307	848.63361	819.38171	-187.86180	931.25806	747.66125	-191.56906
